<?xml version="1.0" encoding="UTF-8"?>
<svg id="Ebene_2" data-name="Ebene 2" xmlns="http://www.w3.org/2000/svg" viewBox="0 0 195.00971 78.6167">
  <defs>
    <style>
      .cls-1 {
        fill: #6ba4d7;
      }

      .cls-1, .cls-2, .cls-3 {
        stroke-width: 0px;
      }

      .cls-2 {
        fill: #7e7f80;
      }
    </style>
  </defs>
  <g id="Ebene_1-2" data-name="Ebene 1">
    <g>
      <path class="cls-3" d="m87.47553,23.66504c0,2.90039-1.04395,5.18555-3.13184,6.85547-2.08691,1.66992-4.99121,2.50488-8.71191,2.50488-3.42773,0-6.45996-.64453-9.09668-1.93359v-6.32812c2.16797.9668,4.00293,1.64746,5.50391,2.04297,1.50195.39551,2.875.59375,4.12012.59375,1.49414,0,2.64062-.28613,3.43848-.85742.79883-.57129,1.19824-1.4209,1.19824-2.54883,0-.62988-.17578-1.18945-.52734-1.68066-.35156-.49023-.86816-.96289-1.5498-1.41699-.68066-.4541-2.06836-1.17969-4.16309-2.17578-1.96289-.92285-3.43555-1.80859-4.41699-2.6582s-1.76465-1.83887-2.35059-2.9668-.87891-2.44629-.87891-3.95508c0-2.8418.96289-5.0752,2.88867-6.70117,1.92676-1.62598,4.58887-2.43945,7.9873-2.43945,1.66992,0,3.2627.19824,4.7793.59375,1.51562.39551,3.10156.95215,4.75684,1.66992l-2.19727,5.29492c-1.71387-.70312-3.13086-1.19336-4.25195-1.47168-1.12012-.27832-2.22266-.41797-3.30664-.41797-1.28906,0-2.27734.30078-2.96582.90137s-1.0332,1.38379-1.0332,2.35059c0,.60059.13965,1.125.41797,1.57129.27832.44727.7207.87891,1.3291,1.29688.60742.41699,2.04688,1.16797,4.31738,2.25195,3.00293,1.43555,5.06152,2.875,6.1748,4.31738,1.11328,1.44336,1.66992,3.21191,1.66992,5.30664Z"/>
      <path class="cls-3" d="m119.95111,16.21582c0,5.28809-1.50586,9.33887-4.51562,12.15137-3.01074,2.8125-7.35742,4.21875-13.04102,4.21875h-9.09668V.46191h10.08594c5.24414,0,9.31641,1.38379,12.2168,4.15234s4.35059,6.63574,4.35059,11.60156Zm-7.0752.17578c0-6.89941-3.04688-10.34863-9.14062-10.34863h-3.62598v20.91797h2.92285c6.5625,0,9.84375-3.52344,9.84375-10.56934Z"/>
      <path class="cls-3" d="m140.2099,32.58594l-7.73438-25.20312h-.19824c.27832,5.12695.41797,8.54785.41797,10.26172v14.94141h-6.08691V.46191h9.27246l7.60254,24.56543h.13184L151.67963.46191h9.27246v32.12402h-6.35059v-15.20508c0-.71777.01074-1.5459.0332-2.4834.02148-.9375.12109-3.42773.29688-7.4707h-.19824l-8.2832,25.15918h-6.24023Z"/>
      <path class="cls-3" d="m195.00971,32.58594h-7.77832l-7.4707-12.15137-7.4707,12.15137h-7.29492l10.65625-16.56738L165.67572.46191h7.51465l6.92188,11.55762,6.78906-11.55762h7.33887l-10.08496,15.92969,10.85449,16.19434Z"/>
    </g>
    <g>
      <path class="cls-3" d="m89.52826,78.17725h-6.81152v-26.45508h-8.72266v-5.66895h24.25781v5.66895h-8.72363v26.45508Z"/>
      <path class="cls-3" d="m132.35346,62.07129c0,5.31738-1.31836,9.4043-3.95508,12.26074s-6.41602,4.28467-11.33789,4.28467-8.70117-1.42822-11.33789-4.28467-3.95508-6.95801-3.95508-12.30469,1.32129-9.42969,3.96582-12.24951c2.64355-2.81982,6.43457-4.22998,11.37109-4.22998s8.71191,1.4209,11.32617,4.2627c2.61523,2.8418,3.92285,6.92871,3.92285,12.26074Zm-23.44531,0c0,3.58887.68164,6.2915,2.04395,8.10791s3.39844,2.72461,6.1084,2.72461c5.43457,0,8.15137-3.61084,8.15137-10.83252,0-7.23633-2.70215-10.85449-8.10742-10.85449-2.70996,0-4.75391.91162-6.13086,2.73584-1.37695,1.82324-2.06543,4.52979-2.06543,8.11865Z"/>
      <path class="cls-3" d="m168.16889,62.07129c0,5.31738-1.31836,9.4043-3.95508,12.26074s-6.41602,4.28467-11.33789,4.28467-8.70117-1.42822-11.33789-4.28467-3.95508-6.95801-3.95508-12.30469,1.32129-9.42969,3.96582-12.24951c2.64355-2.81982,6.43457-4.22998,11.37109-4.22998s8.71191,1.4209,11.32617,4.2627c2.61523,2.8418,3.92285,6.92871,3.92285,12.26074Zm-23.44531,0c0,3.58887.68164,6.2915,2.04395,8.10791s3.39844,2.72461,6.1084,2.72461c5.43457,0,8.15137-3.61084,8.15137-10.83252,0-7.23633-2.70215-10.85449-8.10742-10.85449-2.70996,0-4.75391.91162-6.13086,2.73584-1.37695,1.82324-2.06543,4.52979-2.06543,8.11865Z"/>
      <path class="cls-3" d="m174.82611,78.17725v-32.12402h6.81152v26.49902h13.03027v5.625h-19.8418Z"/>
    </g>
    <path class="cls-2" d="m48.86994,66.74591c-3.42927,0-6.23504-2.80588-6.23504-6.23529,0-4.85674,5.62733-8.4629,10.68354-4.6198.06398.04863.12254.10719.17117.17117,3.84288,5.05642.23686,10.68392-4.61967,10.68392h0Zm-14.02884-10.13236h0l-3.20288,1.53384c-.29711.14229-.48619.44247-.48619.77189v3.08885c0,.32416.18315.62051.47309.76548l2.82959,1.41485c.21322.10662.36871.29845.43801.52654.27218.89585.63854,1.75917,1.07331,2.58994.10893.20814.13195.45049.05767.67336l-1.01535,3.04615c-.10251.30753-.02247.64657.20674.87579l2.21363,2.21371c.22922.22923.56829.30928.87583.20676l3.03606-1.01203c.22868-.07623.47728-.04958.68912.06542.79168.42978,1.64376.79214,2.53117,1.06199.2286.06952.42096.22543.52781.43915l1.41438,2.82887c.14497.28995.44132.47311.76549.47311h3.0988c.32417,0,.62052-.18316.76549-.47311l1.4148-2.8297c.10661-.21323.29844-.36872.52653-.43803.89579-.2722,1.75906-.63856,2.5898-1.07333.20815-.10894.45051-.13196.67338-.05767l3.04599,1.01534c.30754.10251.6466.02247.87583-.20676l2.21363-2.21371c.22921-.22922.30925-.56827.20674-.87579l-1.01204-3.03622c-.07622-.22867-.04958-.47726.06541-.6891.42978-.79173.79213-1.64386,1.06197-2.53132.06951-.2286.22542-.42096.43913-.52782l2.82876-1.41443c.28994-.14498.47309-.44132.47309-.76548v-3.09216c0-.32771-.18714-.62665-.48191-.76983l-2.81358-1.36662c-.21752-.10565-.37651-.29953-.44691-.53087-.27201-.89384-.63774-1.75529-1.0716-2.58433-.10893-.20814-.13195-.45049-.05767-.67336l1.01535-3.04619c.1025-.30753.02247-.64657-.20674-.87579l-2.21362-2.21371c-.22922-.22923-.56829-.30928-.87583-.20676l-3.03605,1.01206c-.22868.07623-.47729.04959-.68913-.06542-.79168-.42978-1.64376-.79214-2.53116-1.06199-.2286-.06952-.42096-.22543-.52781-.43915l-1.41438-2.82887c-.14497-.28995-.44132-.47311-.76549-.47311h-3.09197c-.32772,0-.62666.18714-.76984.48193l-1.3666,2.8137c-.10565.21752-.29952.37651-.53086.44692-.89379.27202-1.75518.63776-2.58418,1.07162-.20815.10894-.45052.13196-.67339.05767l-3.04598-1.01537c-.30754-.10252-.64661-.02247-.87583.20676l-2.21363,2.21371c-.22921.22922-.30925.56826-.20674.87579l1.01205,3.03627c.07622.22867.04958.47726-.06542.6891-.48763.89828-.88844,1.87429-1.16584,2.89146h0Z"/>
    <path class="cls-1" d="m25.41112,32.9101c-4.68596.52273-8.94764-2.88371-9.47039-7.56987-.74032-6.63655,6.39953-12.42201,13.89444-7.94128.09484.0567.18378.12779.25998.20781,6.0219,6.32363,1.95221,14.56306-4.68404,15.30334h0ZM4.69677,21.20306h0l-4.1428,2.58415c-.3843.23972-.59691.67873-.54669,1.12887l.47084,4.2208c.04941.44296.34485.81998.76314.97389l4.08219,1.50202c.30761.11318.54932.35161.67879.65273.50848,1.18265,1.14069,2.3065,1.86143,3.37545.18057.26781.24898.59547.18144.91133l-.92311,4.31721c-.09319.43585.06785.88694.416,1.16522l3.36227,2.68753c.34817.2783.82369.33599,1.2283.14903l3.9944-1.84569c.30086-.13902.64463-.14051.95163-.01565,1.14732.4666,2.36688.83186,3.62062,1.06535.32297.06015.60958.24388.78817.51962l2.3639,3.64994c.24229.37411.67516.57921,1.11813.5298l4.23438-.47235c.44297-.04941.82-.34486.9739-.76317l1.50193-4.08233c.11318-.30762.3516-.54934.65271-.67881,1.18258-.50849,2.30635-1.1407,3.37525-1.86144.26782-.18058.59549-.24899.91136-.18145l4.31699.92312c.43587.0932.88698-.06786,1.16527-.41604l2.6874-3.36238c.27827-.34816.33595-.82365.14901-1.22825l-1.84573-3.99462c-.13901-.30085-.1405-.6446-.01565-.9516.4666-1.14738.83184-2.36702,1.0653-3.62083.06014-.32297.24386-.60959.5196-.78818l3.64979-2.36396c.37409-.2423.57918-.67516.52977-1.11811l-.47134-4.22532c-.04995-.44781-.35123-.82777-.77586-.97849l-4.05296-1.43856c-.31333-.11121-.56014-.3519-.6916-.65729-.50794-1.17993-1.139-2.30132-1.85824-3.36804-.18057-.26781-.24898-.59547-.18144-.91133l.92311-4.31728c.09319-.43585-.06786-.88694-.416-1.16522l-3.36227-2.68753c-.34817-.2783-.82369-.33599-1.22831-.14903l-3.99438,1.84573c-.30086.13902-.64463.14051-.95164.01566-1.14732-.4666-2.36688-.83186-3.62061-1.06534-.32297-.06015-.60958-.24388-.78817-.51962l-2.3639-3.64994c-.24229-.37411-.67516-.57921-1.11813-.5298l-4.22506.47131c-.44782.04995-.82779.35125-.9785.77589l-1.43851,4.05312c-.11121.31333-.35189.56015-.65727.69162-1.17986.50795-2.30117,1.13902-3.36783,1.85824-.26782.18059-.5955.24899-.91137.18144l-4.31698-.92316c-.43587-.09321-.88699.06785-1.16528.41603l-2.6874,3.36238c-.27827.34816-.33595.82365-.14901,1.22825l1.84574,3.99468c.13901.30085.1405.6446.01565.95159-.5294,1.30179-.92832,2.69657-1.15233,4.12878h0Z"/>
  </g>
</svg>